<svg width="40" height="42" viewBox="0 0 40 42" fill="none" xmlns="http://www.w3.org/2000/svg">
<path d="M33.8004 33.0664L14.0607 38.3815C11.4073 39.1052 8.67946 37.5331 7.9603 34.8631L2.67822 15C1.95906 12.33 3.54617 9.58512 6.19961 8.86147L25.9392 3.54637C28.5927 2.82271 31.3205 4.41974 32.0397 7.08977L37.3217 26.9528C38.0161 29.6228 36.4538 32.3677 33.8004 33.0664Z" fill="#E1E4F4"/>
<path d="M34.4201 13.702L33.2298 14.8249C33.2298 14.8249 26.5838 10.6577 26.3606 10.508C26.1374 10.3832 24.2775 13.5772 23.9303 13.7769L3.47156 25.6548L19.5162 28.6741L34.7425 20.4395C35.3128 20.0901 34.4201 13.702 34.4201 13.702Z" fill="#2B2E3A"/>
<path d="M21.8969 14.1765L20.8802 13.8272C20.657 13.7523 20.4338 13.6026 20.285 13.4279L19.913 12.9787C19.7146 12.7292 19.3179 12.7542 19.1443 13.0536L18.7971 13.6525C18.7227 13.7772 18.6731 13.927 18.6731 14.1016V15.5489L17.6068 16.9214L14.2094 18.8927C14.0854 18.9676 14.011 19.0923 14.011 19.2421V19.7162C14.011 19.8659 14.0854 19.9907 14.2094 20.0655L17.3588 21.8871C17.5076 21.987 17.706 21.987 17.8548 21.8871L21.4505 19.841C21.5497 19.791 21.5993 19.6912 21.5993 19.5665V19.2421L22.7401 15.8983C22.9632 15.1996 22.5913 14.426 21.8969 14.1765Z" fill="#57617F"/>
<path d="M26.9309 17.8948L25.9142 17.5454C25.691 17.4706 25.4678 17.3208 25.319 17.1462L24.9471 16.697C24.7487 16.4475 24.3519 16.4724 24.1783 16.7719L23.9551 17.1711C23.8063 17.4456 23.7071 17.745 23.7071 18.0445V19.7164C23.7071 19.891 23.6079 20.0657 23.4592 20.1655L22.6656 20.6397L19.2682 22.611C19.1442 22.6858 19.0698 22.8106 19.0698 22.9603V23.4344C19.0698 23.5842 19.1442 23.7089 19.2682 23.7838L22.4176 25.6054C22.5664 25.7052 22.7648 25.7052 22.9136 25.6054L26.5094 23.5592C26.6086 23.5093 26.6582 23.4095 26.6582 23.2847V22.9603L27.7989 19.6166C28.0221 18.8929 27.6501 18.1443 26.9309 17.8948Z" fill="#57617F"/>
<path d="M12.4983 14.875L11.8287 18.0191L14.3334 16.4471L14.4326 17.7946L16.5156 18.3685L15.0277 19.4415L15.8709 21.9618L9.02649 18.3685L10.192 16.5718L12.4983 14.875Z" fill="#FFD385"/>
<path d="M19.1195 16.0229L17.6564 17.6699L19.7394 17.5701L19.6651 18.3686L21.0042 18.6181L21.3514 16.9961L19.1195 16.0229Z" fill="#FFD385"/>
<path d="M4.48841 22.7852C4.41402 22.9598 4.06684 22.7602 3.76925 23.9829C3.29808 24.4321 3.14929 25.1058 3.14929 25.4552V27.9256C3.14929 28.4496 3.32288 28.9237 3.67006 29.323C3.81885 29.4977 4.56281 29.0984 4.78599 29.2232C6.72028 30.3461 8.80335 31.3692 8.80335 31.3692C9.91929 32.018 10.5144 33.0161 11.804 33.0161L12.1512 32.3424L13.8127 25.3055L4.48841 22.7852Z" fill="#F97A7A"/>
<path d="M33.2299 11.1821L25.6416 6.81523C24.8976 6.39102 23.9553 6.39102 23.2113 6.81523L16.3917 11.5814C16.0198 11.8309 15.5982 12.0056 15.1518 12.0804L13.7879 12.2801L13.3167 12.6294C13.0935 12.8041 12.8951 13.0287 12.7711 13.3031L12.2256 14.5009L9.79533 16.5721L9.02657 17.8197L5.10841 20.8641C4.88522 21.0387 5.1828 21.5877 5.05881 21.8123C4.86042 22.1367 4.31486 22.4112 4.31486 22.8104L4.26526 23.1847C4.26526 23.4343 5.1828 24.1579 5.48039 23.5591C5.67877 23.1598 8.25782 24.0831 8.6298 24.3077L9.74573 25.6302C10.3905 26.0045 9.32415 27.4518 10.0681 27.352L12.9943 27.1274C13.5399 27.0775 14.507 27.4269 14.9782 27.1524C16.8629 26.1293 19.194 23.7587 19.3428 23.8086L21.7234 17.3207C25.468 14.1266 29.4853 13.5277 33.2299 11.1821ZM20.7315 17.8447L18.8468 22.5859C18.7228 22.8853 18.45 23.0849 18.1276 23.0849L9.62174 18.1691C9.57214 17.9445 9.62174 17.695 9.79533 17.4953L10.1921 16.7717L12.4984 14.8752L13.1927 13.4529C13.3911 13.2283 13.7135 13.2033 13.9367 13.403C14.2591 13.7024 14.2839 14.476 14.879 14.9251C15.3006 15.2246 16.2677 15.1996 16.7389 15.4492C17.9292 16.1229 19.6155 16.8466 20.4587 17.1709C20.7067 17.2708 20.8307 17.5702 20.7315 17.8447Z" fill="#BFC6F2"/>
<path d="M35.065 12.5296C34.7426 12.0805 34.2962 11.7561 33.825 11.4816L33.2299 11.1821L32.0643 11.9058C35.1889 15.4741 30.1796 22.511 29.6093 22.8354L27.8734 23.7587C28.171 23.4343 28.3446 23.0351 28.3446 22.5859L28.4438 18.1442C28.4438 17.7948 28.419 17.4455 28.3446 17.0961L27.6254 13.8522C27.5262 13.4279 27.055 13.2034 26.6583 13.4279L23.1369 15.4741C22.3929 15.8983 21.8225 16.597 21.5498 17.3956L20.409 20.6894C20.3098 20.9639 20.2106 21.2384 20.0619 21.4879C19.9627 21.6876 19.8883 21.9122 19.8387 22.1367C19.2683 23.3345 18.3508 24.3077 17.21 24.9814L14.7302 26.4038C14.1102 26.7531 13.4159 27.0027 12.7215 27.0775C12.7215 27.0775 11.4816 27.5766 10.44 28.5747L9.82007 30.8954C9.82007 32.0433 10.7376 32.9666 11.8783 32.9666L14.1102 31.7438C14.4574 31.2697 14.8294 29.0738 17.1356 28.6496L20.533 29.498L28.8157 24.682L33.7754 21.1885C34.6186 20.6894 35.7593 20.1404 35.9329 19.1673C35.9825 18.9676 36.0073 18.7431 36.0073 18.5434V15.2995C36.0073 14.3512 35.6849 13.3531 35.065 12.5296ZM21.4506 21.1136L22.3433 18.0444C22.6161 17.146 23.2113 16.3725 24.0296 15.8983L27.055 14.1266L27.6998 16.9713C27.799 17.4455 27.6006 17.9196 27.2038 18.1941L22.0209 21.5378C21.7234 21.7125 21.3514 21.438 21.4506 21.1136Z" fill="#8698BF"/>
<path d="M12.2502 20.5396C12.2502 20.5396 12.275 20.5396 12.275 20.5645C12.275 20.5396 12.2502 20.5396 12.2502 20.5396Z" fill="#B3B3B3"/>
<path d="M35.4369 18.4683C35.4369 18.4683 34.569 17.9692 34.5194 18.0191C34.4698 18.069 33.1058 18.3186 33.1058 18.3186L31.2212 19.9655L29.6093 24.3074L30.626 23.7335L31.8163 24.4072L35.3129 20.6892L35.3873 20.3398L35.5361 19.3417L35.4369 18.4683Z" fill="#2B2E3A"/>
<path d="M33.9242 19.3169C33.6762 19.3169 33.4282 19.3918 33.2298 19.5165C31.9651 20.2402 31.1219 21.6126 31.1219 23.1847C31.1219 23.9582 31.7419 24.607 32.5355 24.607C32.7834 24.607 33.0314 24.5322 33.2546 24.4074C34.4945 23.6838 35.3625 22.3113 35.3625 20.7392C35.3377 19.9657 34.6929 19.3169 33.9242 19.3169Z" fill="#57617F"/>
<path d="M33.6513 17.8448C32.6098 18.1692 31.7915 18.793 31.1467 19.5167C30.9235 19.7662 30.1052 20.964 29.9564 21.2884C29.6092 21.9621 29.386 22.586 29.2372 23.135C28.9644 24.0333 28.8652 24.732 28.8652 24.732L29.9564 24.1081C29.9564 24.1081 30.8987 19.2921 33.6513 18.4437C34.1721 18.294 34.3457 18.3189 34.6185 18.3938C34.8913 18.4936 35.2633 18.6683 35.3624 18.9428C35.5608 19.4668 35.4616 20.1655 35.3376 20.6645C35.66 20.2403 35.8584 19.7662 35.9576 19.2672C35.8832 18.8928 35.7592 18.5185 35.536 18.2191C35.3872 18.0195 34.1721 17.6701 33.6513 17.8448Z" fill="#BFC6F2"/>
<path d="M3.67006 25.2058L3.99244 25.0561C3.99244 24.1328 4.26523 23.3094 4.26523 23.3094L5.48035 22.2114L4.31482 22.7854C4.24043 22.96 4.09164 22.7604 3.76925 23.9831C3.29808 24.4323 3.14929 25.106 3.14929 25.4554V26.2789C3.14929 27.0275 3.14929 27.5016 3.14929 27.9008C3.14929 27.9008 3.39728 27.9507 3.39728 27.801C3.49647 26.8029 3.67006 25.2058 3.67006 25.2058Z" fill="#8698BF"/>
<path d="M11.2088 30.1715C11.0848 30.3961 11.7791 30.8952 11.7791 31.2695L10.192 31.1946L11.0848 32.9414L8.85291 31.8933L9.77045 29.3481L13.1678 28.2002C13.1926 28.2002 11.3328 29.9469 11.2088 30.1715Z" fill="#F97A7A"/>
<path d="M13.8622 27.8259C12.9694 28.1752 11.3575 28.6743 9.79521 28.3998L8.65448 27.1771L5.62906 26.9276L3.99235 25.056C3.99235 25.056 3.89316 24.1827 3.99235 23.2095C3.99235 23.2095 3.298 25.4553 3.96756 25.9544C3.96756 26.4035 4.04195 26.9026 4.26514 27.0523C4.36433 27.1272 4.61232 27.2519 4.9595 27.4266L5.48027 28.2251L8.10891 29.0486C8.1585 29.0736 8.1833 29.0985 8.2329 29.1235C8.92726 29.4728 9.49762 29.7723 9.69601 29.897C9.944 30.0467 10.0184 29.8471 10.0184 29.5477C10.4152 29.5477 11.1343 29.5227 12.2007 29.3231C12.4238 29.2732 13.019 28.849 13.9862 28.0505C14.0606 27.9506 13.9614 27.8009 13.8622 27.8259Z" fill="#2B2E3A"/>
<path d="M3.89321 27.751L9.79525 31.1696C10.192 32.1178 10.564 32.6668 10.564 32.6668C10.0928 32.8165 9.54727 32.1178 9.15049 31.9931C8.75371 31.8683 4.24038 30.0467 4.24038 30.0467C3.81881 29.7473 3.44683 29.1484 3.37244 28.8988C3.39724 28.5744 3.89321 27.751 3.89321 27.751Z" fill="#EF3F54"/>
<path d="M9.6464 18.3687C9.27442 18.8178 9.00164 19.3169 8.67926 19.791C8.38167 20.2651 8.05929 20.7642 7.73691 21.2383C7.38973 21.7124 7.04255 22.1865 6.64578 22.6108C6.59618 22.6607 6.54658 22.7106 6.49699 22.7605C6.44739 22.8104 6.39779 22.8603 6.3234 22.9352C6.19941 23.0599 5.97622 23.1348 5.80263 23.0849C5.62904 23.0599 5.50505 22.9352 5.40585 22.9102C5.38105 22.9102 5.38105 22.8852 5.38105 22.9102C5.35626 22.9352 5.35626 22.9601 5.35626 22.9851C5.33146 23.0599 5.33146 23.1348 5.33146 23.2096C5.30666 23.1348 5.28186 23.0599 5.28186 22.9851C5.28186 22.9352 5.28186 22.9102 5.30666 22.8603C5.33146 22.8104 5.40585 22.7605 5.45545 22.7605C5.62904 22.7854 5.75303 22.8353 5.87703 22.8353C5.97622 22.8353 6.05061 22.7854 6.12501 22.6856C6.14981 22.6357 6.19941 22.5858 6.2242 22.5109C6.249 22.461 6.2986 22.3862 6.3482 22.3363C6.64578 21.8621 6.96816 21.3631 7.29054 20.889C7.61292 20.4148 7.9601 19.9407 8.35688 19.5165C8.55526 19.2919 8.75365 19.0923 8.97684 18.8927C9.12563 18.693 9.34882 18.4934 9.6464 18.3687Z" fill="#8698BF"/>
<path d="M17.2844 23.1597C16.8876 23.4591 16.4661 23.7336 16.0197 23.9582C15.5733 24.1828 15.1269 24.3824 14.6558 24.5571C14.1846 24.7317 13.7134 24.8815 13.2423 25.0312L12.5479 25.2308C12.3247 25.3057 12.0767 25.3805 11.9031 25.4554L11.9775 25.3805C11.7791 25.68 11.556 25.9545 11.3328 26.229L11.2584 26.3038L11.184 26.2789C10.8368 26.204 10.5144 26.1291 10.1672 26.0293C10.5144 25.9794 10.8616 25.9794 11.2088 25.9794L11.06 26.0543C11.2088 25.7299 11.3824 25.4304 11.556 25.106L11.5808 25.0561L11.6303 25.0312C11.8783 24.8815 12.1015 24.8066 12.3495 24.7068C12.5727 24.607 12.8207 24.5321 13.0439 24.4573C13.515 24.3075 13.9862 24.1578 14.4326 24.033L15.8213 23.6088L17.2844 23.1597Z" fill="#8698BF"/>
<path d="M20.1114 29.8222L20.7065 28.4248L19.9874 26.7778H18.2515L16.9868 27.6762L15.5237 29.2233L14.7301 30.5708C14.7301 30.5708 15.2757 30.1965 15.8956 29.8471C17.8051 28.7991 20.1114 29.8222 20.1114 29.8222Z" fill="#2B2E3A"/>
<path d="M18.5492 29.0487C18.2764 28.899 17.9044 29.0237 17.6068 29.3232L16.0445 28.3999L15.4246 29.5228L17.0365 30.471C16.9869 30.8453 17.0613 31.1448 17.3092 31.2945L17.6068 31.4692L18.8468 29.2234C18.8468 29.2234 18.574 29.0736 18.5492 29.0487Z" fill="#57617F"/>
<path d="M18.8466 29.2232C18.4498 29.0236 17.8795 29.348 17.5571 29.9718C17.2347 30.5957 17.2099 31.2694 17.6067 31.4691C18.0035 31.6687 18.6482 31.3443 18.9706 30.7205C19.293 30.0966 19.2434 29.4229 18.8466 29.2232Z" fill="#8698BF"/>
<path d="M14.5813 30.7957C14.5813 30.7957 15.1021 30.3965 15.4492 29.5231C15.598 29.1488 15.8708 29.5231 16.1188 29.1238C16.6644 28.2255 17.4579 27.3771 18.5491 27.0527C21.3265 26.2043 20.0866 29.8225 20.0866 29.8225L20.9049 29.3484C20.9049 29.3484 21.4257 25.5305 18.5739 26.4289C17.0363 26.9279 16.1188 27.3771 15.4244 28.4002C15.3004 28.5749 15.1517 29.2736 15.1517 29.2736L13.7629 30.1469C13.7629 30.1469 13.9365 31.0203 13.8869 31.2199C13.7877 31.5443 14.0853 31.7939 14.0853 31.7939C14.5317 31.4695 14.4573 31.2199 14.5813 30.7957Z" fill="#BFC6F2"/>
</svg>
